<svg width="13" height="13" viewBox="0 0 13 13" fill="none" xmlns="http://www.w3.org/2000/svg">
<path d="M1.81311 0.0344143C1.56487 0.119162 1.3568 0.267904 1.04887 0.590059C0.368308 1.30677 0.0480989 2.05603 0.0040296 3.06234C-0.0478494 4.21795 0.400092 5.49423 1.41257 7.06908C3.10561 9.69852 4.80646 11.2408 7.05623 12.1831C8.20872 12.6664 8.96126 12.9161 9.45774 12.9885C9.82981 13.0368 10.5662 12.9279 11.0225 12.7511C11.4347 12.59 12.011 12.2118 12.2676 11.9295C12.6597 11.4945 13 10.528 13 9.83937C13 9.5537 12.9922 9.51722 12.8918 9.40441C12.6876 9.17879 10.15 7.84584 9.84988 7.80599C9.57766 7.76951 9.47 7.8464 9.0215 8.37397C8.32532 9.1917 8.10887 9.40498 7.98503 9.40498C7.84111 9.40498 6.87661 8.91782 6.41584 8.61194C5.29124 7.86324 4.35461 6.83615 3.62217 5.53126C3.56192 5.4263 3.51395 5.32584 3.51395 5.30171C3.51395 5.27758 3.64225 5.11649 3.79789 4.94756C4.17387 4.5328 4.29828 4.34367 4.45838 3.95304C4.64247 3.51415 4.63465 3.39741 4.39032 2.73289C4.03832 1.76643 3.9262 1.46447 3.73374 0.94476C3.53348 0.405403 3.38174 0.167429 3.17757 0.0826806C2.99014 0.00186126 2.00947 -0.0301289 1.81311 0.0344143Z" fill="#bd9a68"/>
</svg>
