<svg width="23" height="23" viewBox="0 0 23 23" fill="none" xmlns="http://www.w3.org/2000/svg">
<rect x="0.5" y="0.5" width="22" height="22" rx="11" fill="white" stroke="#bd9a68"/>
<path d="M6.81311 5.03441C6.56487 5.11916 6.3568 5.2679 6.04887 5.59006C5.36831 6.30677 5.0481 7.05603 5.00403 8.06234C4.95215 9.21795 5.40009 10.4942 6.41257 12.0691C8.10561 14.6985 9.80646 16.2408 12.0562 17.1831C13.2087 17.6664 13.9613 17.9161 14.4577 17.9885C14.8298 18.0368 15.5662 17.9279 16.0225 17.7511C16.4347 17.59 17.011 17.2118 17.2676 16.9295C17.6597 16.4945 18 15.528 18 14.8394C18 14.5537 17.9922 14.5172 17.8918 14.4044C17.6876 14.1788 15.15 12.8458 14.8499 12.806C14.5777 12.7695 14.47 12.8464 14.0215 13.374C13.3253 14.1917 13.1089 14.405 12.985 14.405C12.8411 14.405 11.8766 13.9178 11.4158 13.6119C10.2912 12.8632 9.35461 11.8362 8.62217 10.5313C8.56192 10.4263 8.51395 10.3258 8.51395 10.3017C8.51395 10.2776 8.64225 10.1165 8.79789 9.94756C9.17387 9.5328 9.29828 9.34367 9.45838 8.95304C9.64247 8.51415 9.63465 8.39741 9.39032 7.73289C9.03832 6.76643 8.9262 6.46447 8.73374 5.94476C8.53348 5.4054 8.38174 5.16743 8.17757 5.08268C7.99014 5.00186 7.00947 4.96987 6.81311 5.03441Z" fill="#bd9a68"/>
</svg>
