<svg width="13" height="19" viewBox="0 0 13 19" fill="none" xmlns="http://www.w3.org/2000/svg">
<g id="Group 33212">
<path id="Vector" d="M6.41667 0C2.86917 0 0 2.86917 0 6.41667C0 11.2292 6.41667 18.3333 6.41667 18.3333C6.41667 18.3333 12.8333 11.2292 12.8333 6.41667C12.8333 2.86917 9.96417 0 6.41667 0ZM1.83333 6.41667C1.83333 3.88667 3.88667 1.83333 6.41667 1.83333C8.94667 1.83333 11 3.88667 11 6.41667C11 9.05667 8.36 13.0075 6.41667 15.4733C4.51 13.0258 1.83333 9.02917 1.83333 6.41667Z" fill="red"/>
<path id="Vector_2" d="M6.41667 8.70833C7.68232 8.70833 8.70833 7.68232 8.70833 6.41667C8.70833 5.15101 7.68232 4.125 6.41667 4.125C5.15101 4.125 4.125 5.15101 4.125 6.41667C4.125 7.68232 5.15101 8.70833 6.41667 8.70833Z" fill="red"/>
</g>
</svg>
